<svg width="24" height="24" viewBox="0 0 24 24" fill="none" xmlns="http://www.w3.org/2000/svg">
<circle cx="12" cy="12" r="9" stroke="black"/>
<path d="M9.63175 9.18182V15H8.57777V9.18182H9.63175ZM12.7447 15H10.7731V9.18182H12.7844C13.3621 9.18182 13.8583 9.2983 14.2731 9.53125C14.6897 9.76231 15.0098 10.0947 15.2333 10.5284C15.4568 10.9621 15.5685 11.4811 15.5685 12.0852C15.5685 12.6913 15.4558 13.2121 15.2305 13.6477C15.007 14.0833 14.6841 14.4176 14.2617 14.6506C13.8413 14.8835 13.3356 15 12.7447 15ZM11.8271 14.0881H12.6935C13.0988 14.0881 13.4369 14.0142 13.7077 13.8665C13.9786 13.7169 14.1822 13.4943 14.3185 13.1989C14.4549 12.9015 14.5231 12.5303 14.5231 12.0852C14.5231 11.6402 14.4549 11.2708 14.3185 10.9773C14.1822 10.6818 13.9805 10.4612 13.7134 10.3153C13.4483 10.1676 13.1187 10.0938 12.7248 10.0938H11.8271V14.0881Z" fill="black"/>
</svg>
